HIERARCHY
ROOT Hips
{
    OFFSET 0.0 0.0 0.0
    CHANNELS 6 Xposition Yposition Zposition Zrotation Xrotation Yrotation
    JOINT LeftUpLeg
    {
        OFFSET 14.115484867553791 0.0 0.0
        CHANNELS 3 Zrotation Xrotation Yrotation
        JOINT LeftLeg
        {
            OFFSET 0.0 0.0 -56.58649383856297
            CHANNELS 3 Zrotation Xrotation Yrotation
            JOINT LeftFoot
            {
                OFFSET 0.0 0.0 -45.636422591467436
                CHANNELS 3 Zrotation Xrotation Yrotation
                JOINT LeftToeBase
                {
                    OFFSET 0.0 -13.085664068743565 0.0
                    CHANNELS 3 Zrotation Xrotation Yrotation
                    End Site
                    {
                        OFFSET 0 0 0
                    }
                }
            }
        }
    }
    JOINT RightUpLeg
    {
        OFFSET -14.115484867553791 0.0 0.0
        CHANNELS 3 Zrotation Xrotation Yrotation
        JOINT RightLeg
        {
            OFFSET 0.0 0.0 -56.58649383856297
            CHANNELS 3 Zrotation Xrotation Yrotation
            JOINT RightFoot
            {
                OFFSET 0.0 0.0 -45.636422591467436
                CHANNELS 3 Zrotation Xrotation Yrotation
                JOINT RightToeBase
                {
                    OFFSET 0.0 -13.085664068743565 0.0
                    CHANNELS 3 Zrotation Xrotation Yrotation
                    End Site
                    {
                        OFFSET 0 0 0
                    }
                }
            }
        }
    }
    JOINT Spine
    {
        OFFSET 0.0 0.0 11.743136450262181
        CHANNELS 3 Zrotation Xrotation Yrotation
        JOINT Spine1
        {
            OFFSET 0.0 0.0 11.665834129351376
            CHANNELS 3 Zrotation Xrotation Yrotation
            JOINT Spine2
            {
                OFFSET 0.0 0.0 11.665834129351376
                CHANNELS 3 Zrotation Xrotation Yrotation
                JOINT Spine3
                {
                    OFFSET 0.0 0.0 11.665834129351369
                    CHANNELS 3 Zrotation Xrotation Yrotation
                    JOINT Spine4
                    {
                        OFFSET 0.0 0.0 11.665834129351381
                        CHANNELS 3 Zrotation Xrotation Yrotation
                        JOINT RightShoulder
                        {
                            OFFSET -23.562778574333734 0.0 0.0
                            CHANNELS 3 Zrotation Xrotation Yrotation
                            JOINT RightArm
                            {
                                OFFSET -33.871202857414914 0.0 0.0
                                CHANNELS 3 Zrotation Xrotation Yrotation
                                JOINT RightForeArm
                                {
                                    OFFSET -34.39240403731349 0.0 0.0
                                    CHANNELS 3 Zrotation Xrotation Yrotation
                                    JOINT RightHand
                                    {
                                        OFFSET -11.324634354124935 0.0 0.0
                                        CHANNELS 3 Zrotation Xrotation Yrotation
                                        End Site
                                        {
                                            OFFSET 0 0 0
                                        }
                                    }
                                }
                            }
                        }
                        JOINT LeftShoulder
                        {
                            OFFSET 23.562778574333734 0.0 0.0
                            CHANNELS 3 Zrotation Xrotation Yrotation
                            JOINT LeftArm
                            {
                                OFFSET 33.871202857414914 0.0 0.0
                                CHANNELS 3 Zrotation Xrotation Yrotation
                                JOINT LeftForeArm
                                {
                                    OFFSET 34.39240403731349 0.0 0.0
                                    CHANNELS 3 Zrotation Xrotation Yrotation
                                    JOINT LeftHand
                                    {
                                        OFFSET 11.324634354124935 0.0 0.0
                                        CHANNELS 3 Zrotation Xrotation Yrotation
                                        End Site
                                        {
                                            OFFSET 0 0 0
                                        }
                                    }
                                }
                            }
                        }
                        JOINT Neck
                        {
                            OFFSET 0.0 0.0 11.665834157815514
                            CHANNELS 3 Zrotation Xrotation Yrotation
                            JOINT Head
                            {
                                OFFSET 0.0 0.0 26.063797731161248
                                CHANNELS 3 Zrotation Xrotation Yrotation
                                End Site
                                {
                                    OFFSET 0 0 0
                                }
                            }
                        }
                    }
                }
            }
        }
    }
}
MOTION
Frames: 4
Frame Time: 0.03333333333333333
55.3375049829483 0.89140368886292 456.8775375366211 153.25209039018188 -81.96899608599873 154.16558310582806 0.6016585082511595 3.6768132638462907 -20.32490119978555 11.354893236357421 -5.161864760613419 28.50808854358568 -107.63115565526275 -3.1805546814635168e-15 76.34003902774697 0.0 0.0 0.0 8.16720024471402 12.40633473535969 16.151450499269792 -21.552699040949967 -11.415592042312431 -32.78078394438768 87.02421089511556 -9.54166404439055e-15 -62.23009088053937 -6.3611093629270335e-15 0.0 0.0 0.034436819504652175 2.3447493926588114 -0.7679395448925491 -1.987846675914698e-16 0.0 0.0 -1.987846675914698e-16 0.0 0.0 -1.987846675914698e-16 0.0 0.0 -1.987846675914698e-16 0.0 0.0 84.30282692971244 -46.07986714895971 130.86589139051463 11.741285278192665 7.909684508311023e-15 -8.132905324092027e-16 2.0326147813132748e-14 24.804032822455362 -1.098283759665068e-14 -3.975693351829396e-16 0.0 0.0 -156.61826665812592 18.311432908718192 158.2695967807717 -115.59400682508466 -1.9068557527711484e-15 -3.0276843654228136e-15 -9.749224069076239e-16 30.597009142193762 3.5640815939980195e-15 0.0 0.0 0.0 -6.68673853109603 -7.209321618004866e-15 -1.217656587028893e-15 0.0 6.361109362927033e-15 0.0
54.633877515792854 0.1726368494331837 456.6862672805786 151.78519644619664 -81.70570059707946 152.0960654792765 1.0129260812121195 3.354923824847125 -21.49637538007503 8.372741925664172 -3.562987238296662 31.008044303812326 -105.07987951134999 9.54166404439055e-15 74.30231327197143 0.0 0.0 1.5902773407317584e-15 8.962610346571315 13.088860885647017 16.958046388461685 -20.304432831064638 -10.148406090641274 -31.13511731251194 71.58870987003849 0.0 -43.4457455325158 6.3611093629270335e-15 0.0 0.0 0.03439864367225587 2.3354556681687817 -0.78047742560015 3.975693351829396e-16 0.0 0.0 3.975693351829396e-16 0.0 0.0 3.975693351829396e-16 0.0 0.0 3.975693351829396e-16 0.0 0.0 78.77138474530987 -48.289684471361 128.31418590683853 12.91268592424183 -8.050584994145925e-15 1.3714455267947021e-14 2.1101795014906966e-15 21.435017803062063 -6.8734329375350846e-15 -5.1684013573782136e-15 0.0 0.0 -156.05570952717062 21.685252947796293 156.95463530739752 -114.48782124295592 -2.9833610176220993e-15 7.119599419578685e-15 -5.070497939870854e-15 -54.762312323006 -9.789861317299604e-15 0.0 0.0 0.0 -5.469266895818451 -8.683822942494112e-15 -4.1477960916320695e-16 -2.484808344893373e-16 2.155227684594804e-34 -9.939233379573492e-17
53.876528048515326 -1.180316886305809 456.5394207000732 149.45186956855758 -81.28000526888552 149.18340840963052 1.2928727006967413 3.1503331251836646 -22.795834551901578 4.680330559960947 -1.8321007148129915 33.923746783947294 -102.51631779804859 -9.54166404439055e-15 71.57946763266064 0.0 0.0 0.0 10.502298720511392 14.41381301446912 17.499678519919396 -18.86426517489079 -8.894529416865783 -29.359397525304132 66.6590977748047 -2.2263882770244617e-14 -38.279783126847825 0.0 0.0 0.0 0.028396734302631024 2.352301893900983 -0.7325285728013047 0.0 1.2424041724466862e-17 0.0 0.0 1.2424041724466862e-17 0.0 0.0 1.2424041724466862e-17 0.0 0.0 1.2424041724466862e-17 0.0 77.06459185812263 -48.768870627874335 128.35872091432395 14.654860238362906 -4.7771655717854726e-15 -1.2212676467097574e-14 -7.925363918682209e-15 23.541171784185877 1.4646933624769885e-14 -7.951386703658791e-16 0.0 0.0 -155.9363656699076 25.023905279804726 156.01111777834387 -113.11297228658546 -2.678622398596279e-15 7.486623575207997e-15 180.0 -81.68740822603756 -180.0 0.0 0.0 -1.1927080055488188e-15 -4.425352579976218 -2.8845906248846554e-14 -1.5124053518521422e-15 0.0 0.0 0.0
53.11581258773804 -2.8868283435702327 456.43934097290037 146.8641838403425 -80.7443487339533 146.06533273785288 1.4919485763537144 3.016008973661573 -24.130568691640732 0.2817568861701221 -0.10093011684276432 37.04682030261671 -100.08078235104423 -1.2722218725854067e-14 68.21452363846304 -6.3611093629270335e-15 -3.1805546814635168e-15 1.5902773407317582e-15 12.656330090413263 16.193775180348766 17.69325106455646 -16.86604773315659 -7.5473634800275855 -27.49611861315827 60.610010928173764 1.2722218725854067e-14 -34.00670747529652 0.0 0.0 0.0 0.023878752002247598 2.374107426730105 -0.6739503300681611 0.0 0.0 0.0 0.0 0.0 0.0 0.0 0.0 0.0 0.0 0.0 0.0 75.98291937180531 -48.33230877164148 129.09190324318416 14.629897536583947 -2.280759760000082e-14 2.21676859390958e-14 2.964262670686976e-15 30.31422671790207 -1.3983734429830443e-14 1.5902773407317584e-15 0.0 0.0 -155.87073042950018 27.831151800403585 155.12330072200112 -111.76346582430604 -2.2299782046618354e-16 -3.291403171067567e-16 -180.0 -71.29030340999306 -180.0 0.0 0.0 0.0 -3.7374184551270053 -8.804234435437826e-15 -8.836265928099982e-17 0.0 0.0 0.0
